<svg width="145" height="30" viewBox="0 0 145 30" fill="none" xmlns="http://www.w3.org/2000/svg">
<path d="M21.1247 11.6076C21.4616 11.3996 21.7756 11.1566 22.0616 10.8825C22.1174 10.8286 22.1697 10.7748 22.2227 10.7209C22.4228 10.5167 22.6073 10.2977 22.7748 10.0657C22.9452 9.82996 23.0916 9.57767 23.2119 9.31264C23.3794 8.95122 23.4823 8.56304 23.5158 8.16586C23.6197 6.81001 22.8187 5.46186 21.0327 4.37452L13.8412 0L5.45772 8.05678L0 13.3012L7.57068 17.9092C8.78307 18.6538 10.1757 19.0509 11.5972 19.0574C13.3344 19.0574 14.9991 18.4421 16.2275 17.261C17.5631 15.9772 18.0065 14.3158 17.1825 12.9348C17.0482 12.7108 16.8892 12.5027 16.7085 12.3145C17.1498 12.4132 17.6004 12.4636 18.0525 12.4649H18.0644C18.8036 12.4662 19.5365 12.3288 20.2254 12.06C20.538 11.9364 20.839 11.785 21.1247 11.6076ZM14.1124 15.7891C12.7656 17.0834 10.5989 17.2743 8.83524 16.2017L3.59781 13.0131L8.29916 8.49241L13.6265 11.7362C15.5464 12.9061 15.4404 14.5165 14.1124 15.7919V15.7891ZM14.7356 10.0406L9.81051 7.04426L14.2999 2.72708L19.1358 5.67163C20.9441 6.77155 21.1791 8.26236 19.8713 9.51752C19.193 10.1611 18.3215 10.5617 17.3926 10.6568C16.4638 10.7519 15.5296 10.5362 14.7356 10.0434V10.0406ZM16.8172 23.3263C15.453 24.6374 13.5986 25.3598 11.5972 25.3598C10.0196 25.3534 8.4739 24.9135 7.12801 24.0878L0 19.7546V21.4796L7.57068 26.0884C8.78307 26.8329 10.1757 27.23 11.5972 27.2366C13.3344 27.2366 14.9991 26.6205 16.2275 25.4402C17.1253 24.5773 17.6217 23.5431 17.5994 22.539V22.4138C17.3694 22.7449 17.1074 23.0524 16.8172 23.3319V23.3263ZM16.8172 20.5993C15.453 21.9111 13.5986 22.6334 11.5972 22.6334C10.0196 22.627 8.4739 22.1871 7.12801 21.3614L0 17.0282V18.7539L7.57068 23.3627C8.78312 24.107 10.1757 24.5039 11.5972 24.5102C13.3344 24.5102 14.9991 23.8948 16.2275 22.7145C17.1253 21.8509 17.6217 20.8174 17.5994 19.8126V19.6874C17.3697 20.0188 17.1077 20.3263 16.8172 20.6056V20.5993ZM16.8172 17.8722C15.453 19.184 13.5986 19.9063 11.5972 19.9063C10.0196 19.8999 8.4739 19.46 7.12801 18.6344L0 14.3025V16.0283L7.57068 20.637C8.78312 21.3813 10.1757 21.7782 11.5972 21.7845C13.3344 21.7845 14.9991 21.1691 16.2275 19.9881C17.1253 19.1252 17.6217 18.0917 17.5994 17.0869V16.9597C17.3697 17.2916 17.1077 17.5999 16.8172 17.8799V17.8722ZM22.6514 19.6721C21.5136 20.7591 20.0248 21.4008 18.4554 21.4803V23.355C19.8046 23.2798 21.0829 22.7253 22.0616 21.7908C23.0376 20.8552 23.536 19.8252 23.5256 18.8092V18.6553C23.2695 19.0256 22.9766 19.3689 22.6514 19.6797V19.6721ZM16.8172 26.0499C15.453 27.361 13.5986 28.0841 11.5972 28.0841C10.0195 28.0777 8.47371 27.6375 7.12801 26.8114L0 22.4802V24.2053L7.57068 28.8141C8.78307 29.5586 10.1757 29.9557 11.5972 29.9622C13.3344 29.9622 14.9991 29.3462 16.2275 28.1659C17.1253 27.303 17.6217 26.2688 17.5994 25.2647V25.1395C17.3695 25.4707 17.1075 25.7782 16.8172 26.0576V26.0499ZM22.795 11.351C22.7476 11.3992 22.7009 11.4475 22.6514 11.4943C22.1875 11.9297 21.666 12.2989 21.1017 12.5914C20.525 12.8833 19.9087 13.0885 19.2725 13.2005C18.9465 13.2611 18.6166 13.2978 18.2853 13.3103C18.3202 13.4228 18.3481 13.5375 18.3725 13.6529C18.4306 13.9287 18.4571 14.2102 18.4513 14.492V15.1738H18.4547C19.0613 15.1373 19.6586 15.0068 20.2254 14.7871C20.9089 14.5189 21.5336 14.1194 22.0644 13.6109C22.1209 13.5571 22.1697 13.5019 22.2227 13.4473C22.4228 13.2428 22.6073 13.0236 22.7748 12.7914C22.9455 12.5554 23.0924 12.3029 23.2133 12.0376C23.3803 11.6752 23.4823 11.286 23.5144 10.8881C23.5207 10.802 23.5283 10.7153 23.5277 10.6293V10.4895C23.4775 10.5594 23.4245 10.6335 23.3701 10.7055C23.1924 10.9353 23.0003 11.1534 22.795 11.3586V11.351ZM22.795 16.7995C22.7476 16.8485 22.7044 16.8981 22.6556 16.9464C21.5179 18.0336 20.029 18.675 18.4596 18.7539V20.6279C19.8087 20.5524 21.0869 19.9979 22.0658 19.0637C22.5453 18.6178 22.9352 18.084 23.2146 17.4911C23.3816 17.1286 23.4836 16.7395 23.5158 16.3415C23.5221 16.2548 23.5297 16.1681 23.529 16.0821V15.9283C23.4775 16.0038 23.4266 16.0793 23.3708 16.1534C23.1923 16.3838 22.999 16.6022 22.7922 16.8072L22.795 16.7995ZM22.795 14.0724C22.7476 14.1214 22.7044 14.171 22.6556 14.2193C22.4241 14.439 22.1766 14.6412 21.9152 14.8241C21.6571 15.0068 21.3862 15.1704 21.1045 15.3136C20.2815 15.7319 19.3809 15.9743 18.4596 16.0255H18.4561V17.8904C19.8052 17.8149 21.0835 17.2604 22.0623 16.3261C22.1188 16.2723 22.1676 16.217 22.2206 16.1625C22.4207 15.958 22.6052 15.7388 22.7727 15.5066C22.9433 15.2707 23.0901 15.0184 23.2112 14.7535C23.3782 14.3909 23.4802 14.0015 23.5123 13.6032C23.5186 13.5172 23.5263 13.4305 23.5256 13.3445V13.1907C23.474 13.2662 23.4231 13.3417 23.3673 13.4158C23.19 13.6499 22.9979 13.8722 22.7922 14.0815L22.795 14.0724ZM39.5955 7.86029C39.9645 7.86029 40.3616 7.86425 40.7868 7.87218C41.2121 7.8801 41.6331 7.90341 42.05 7.9421C42.4423 7.97821 42.832 8.03822 43.217 8.12181C43.5439 8.18875 43.8573 8.31024 44.1441 8.48122C44.7195 8.8311 45.2089 9.30647 45.576 9.87204C45.9641 10.4697 46.1581 11.2006 46.1581 12.0649C46.1581 12.9758 45.9376 13.7631 45.4966 14.427C45.0555 15.0908 44.4258 15.5824 43.6074 15.9017V15.9492C44.6661 16.1739 45.4763 16.6536 46.0382 17.3883C46.6001 18.123 46.8808 19.018 46.8803 20.0734C46.8805 20.6964 46.7663 21.3141 46.5436 21.8957C46.3218 22.4825 45.9817 23.0171 45.5447 23.4662C45.0779 23.9395 44.5216 24.3146 43.9085 24.5696C43.2579 24.8493 42.5078 24.9892 41.6582 24.9892H33.3577V7.86938L39.5955 7.86029ZM40.2229 15.2213C41.5242 15.2213 42.4585 14.9934 43.026 14.5374C43.5934 14.0815 43.8783 13.3984 43.8806 12.4879C43.8806 11.8819 43.7844 11.4022 43.592 11.0489C43.4089 10.7075 43.1334 10.4249 42.7973 10.2336C42.4347 10.0368 42.037 9.91376 41.6269 9.87134C41.1599 9.81384 40.6898 9.78582 40.2194 9.78743H35.6463V15.2304L40.2229 15.2213ZM41.378 23.062C42.3883 23.062 43.1784 22.7902 43.7482 22.2467C44.318 21.7031 44.6005 20.9538 44.5959 19.9986C44.5959 19.4392 44.4918 18.9758 44.2836 18.6085C44.0845 18.2514 43.7989 17.9503 43.4533 17.733C43.0874 17.5091 42.6836 17.3545 42.2619 17.2771C41.8024 17.1887 41.3356 17.1447 40.8677 17.1457H35.6435V23.0683L41.378 23.062ZM60.534 24.9318C60.1804 25.1393 59.691 25.2432 59.0659 25.2437C58.5361 25.2437 58.115 25.0959 57.8027 24.8004C57.4904 24.5048 57.3338 24.0212 57.3329 23.3494C56.8117 23.9912 56.1371 24.4904 55.3719 24.8004C54.088 25.2879 52.6874 25.3757 51.353 25.0521C50.881 24.9396 50.4353 24.7358 50.041 24.4521C49.6648 24.1767 49.3609 23.8136 49.1557 23.3942C48.9396 22.955 48.8313 22.4236 48.8309 21.7999C48.8309 21.0964 48.9512 20.5209 49.192 20.0734C49.4198 19.6404 49.7454 19.2669 50.1428 18.9826C50.5524 18.6949 51.0082 18.4799 51.4904 18.347C51.996 18.2034 52.5135 18.0836 53.0428 17.9876C53.6042 17.8757 54.1387 17.7918 54.6462 17.7358C55.0968 17.69 55.5434 17.6098 55.9819 17.496C56.3674 17.3925 56.6713 17.2408 56.8965 17.0408C57.1216 16.8408 57.2332 16.5513 57.2332 16.1653C57.2332 15.7178 57.1491 15.3581 56.9808 15.0864C56.8225 14.8249 56.5985 14.6098 56.3311 14.4626C56.0533 14.3151 55.7517 14.2178 55.4402 14.1752C55.117 14.1282 54.7908 14.1048 54.4642 14.1053C53.5984 14.1053 52.8765 14.2685 52.2983 14.5948C51.7202 14.9211 51.4069 15.5404 51.3586 16.4527H49.3133C49.3453 15.6854 49.5057 15.0381 49.7943 14.5109C50.0713 13.9966 50.4675 13.5565 50.9494 13.2277C51.4507 12.892 52.0097 12.6523 52.5981 12.5208C53.2496 12.3737 53.9157 12.3019 54.5835 12.3068C55.1433 12.3069 55.7024 12.3471 56.2565 12.4271C56.7833 12.498 57.293 12.6638 57.7609 12.9166C58.2079 13.1607 58.5822 13.5196 58.8456 13.9564C59.1184 14.4025 59.2548 14.9852 59.2548 15.7045V22.0677C59.2548 22.546 59.2829 22.8968 59.3392 23.1201C59.3954 23.3434 59.5839 23.455 59.9045 23.455C60.1169 23.4502 60.3278 23.418 60.5319 23.3592L60.534 24.9318ZM57.213 18.5777C56.9557 18.7693 56.619 18.9078 56.2022 18.9973C55.7853 19.0868 55.3475 19.156 54.8902 19.2119C54.4329 19.2679 53.9721 19.3315 53.5064 19.4028C53.0752 19.4642 52.6536 19.5802 52.2516 19.7483C51.8987 19.8954 51.5884 20.1294 51.3495 20.4286C51.1172 20.7233 51.001 21.1249 51.001 21.6335C50.9914 21.9291 51.0623 22.2219 51.2059 22.4802C51.3368 22.7052 51.518 22.8967 51.735 23.0396C51.9666 23.1892 52.2237 23.2945 52.4935 23.3501C52.7938 23.4149 53.1002 23.4468 53.4074 23.4452C54.0813 23.4452 54.659 23.3538 55.1404 23.1711C55.5732 23.0166 55.9731 22.7818 56.3193 22.4788C56.6048 22.2264 56.8344 21.9167 56.9934 21.5698C57.1289 21.2821 57.2028 20.9691 57.2102 20.651L57.213 18.5777ZM69.8649 14.7542C69.3514 14.323 68.6615 14.1072 67.7952 14.1067C67.0567 14.1067 66.4391 14.2426 65.9423 14.5144C65.4626 14.7701 65.0533 15.1407 64.7509 15.5933C64.4441 16.0646 64.2278 16.5892 64.113 17.1401C63.9836 17.7345 63.9191 18.3413 63.9206 18.9497C63.9195 19.5154 63.9881 20.0791 64.1249 20.6279C64.25 21.1455 64.466 21.6366 64.7627 22.0782C65.0533 22.5037 65.4413 22.8533 65.8942 23.0977C66.3589 23.3536 66.9124 23.4813 67.5547 23.4809C68.5655 23.4809 69.3556 23.2173 69.9249 22.69C70.4942 22.1628 70.8427 21.4195 70.9705 20.4601H73.0619C72.8374 21.9943 72.2639 23.1772 71.3414 24.0088C70.4189 24.8405 69.1641 25.256 67.577 25.2556C66.6303 25.2556 65.7921 25.1036 65.0625 24.7997C64.3621 24.5152 63.7372 24.0711 63.2374 23.5026C62.7347 22.919 62.3578 22.2374 62.1304 21.5006C61.8734 20.6751 61.7466 19.8145 61.7547 18.9497C61.7482 18.0694 61.8699 17.1929 62.1158 16.3478C62.3365 15.5782 62.7089 14.8608 63.211 14.2382C63.7078 13.6309 64.337 13.146 65.0499 12.8208C65.7894 12.4781 66.6491 12.3068 67.6293 12.3068C68.2993 12.3022 68.9669 12.3869 69.6147 12.5586C70.2042 12.713 70.7595 12.9775 71.2515 13.3382C71.7288 13.6943 72.1264 14.1469 72.4185 14.6668C72.7229 15.2024 72.9155 15.8378 72.9964 16.573H70.8785C70.7159 15.7898 70.378 15.1836 69.8649 14.7542ZM77.5172 7.87288V18.012L83.1966 12.5935H85.9404L81.0069 17.1009L86.3015 24.9899H83.702L79.4426 18.5155L77.5172 20.2902V24.9899H75.4718V7.86938L77.5172 7.87288ZM89.4058 22.2229C89.5931 22.5298 89.8535 22.7852 90.1635 22.9662C90.4922 23.1562 90.85 23.29 91.2225 23.362C91.6227 23.4428 92.03 23.4828 92.4382 23.4816C92.7763 23.4808 93.114 23.4575 93.449 23.4116C93.7849 23.3686 94.1132 23.2797 94.425 23.1473C94.7132 23.0267 94.9659 22.8341 95.1591 22.5879C95.3515 22.3399 95.4477 22.0241 95.4477 21.6404C95.4477 21.1132 95.2471 20.7137 94.8461 20.4419C94.3831 20.1427 93.8751 19.92 93.3417 19.7825C92.7403 19.6147 92.0866 19.4627 91.3807 19.3266C90.7092 19.2013 90.052 19.0085 89.419 18.7511C88.8444 18.5205 88.33 18.161 87.9153 17.7002C87.5138 17.2526 87.3133 16.6291 87.3137 15.8297C87.3137 15.2059 87.4532 14.6698 87.732 14.2214C88.0061 13.7803 88.3763 13.4071 88.8146 13.1299C89.2749 12.8424 89.7788 12.632 90.3064 12.5068C90.8472 12.3738 91.4019 12.3067 91.9586 12.3068C92.6136 12.3017 93.2675 12.3622 93.9105 12.4872C94.4706 12.5933 95.0056 12.8047 95.4874 13.1103C95.9483 13.4098 96.325 13.8226 96.5819 14.3095C96.8547 14.813 97.0153 15.4402 97.0636 16.1912H95.0176C94.9855 15.7917 94.8814 15.46 94.7052 15.1961C94.5318 14.9357 94.3012 14.7185 94.0311 14.5612C93.7507 14.3977 93.4462 14.2797 93.1291 14.2116C92.8008 14.1401 92.466 14.104 92.1301 14.1039C91.8199 14.1035 91.5102 14.1269 91.2036 14.1738C90.9083 14.2168 90.6206 14.3016 90.349 14.4256C90.1054 14.5341 89.8905 14.6984 89.7216 14.9053C89.5608 15.1052 89.4804 15.3649 89.4804 15.6842C89.4761 15.8485 89.5073 16.0118 89.5718 16.1629C89.6363 16.314 89.7326 16.4494 89.854 16.5597C90.132 16.8095 90.4543 17.0047 90.8042 17.1352C91.2263 17.2979 91.6609 17.4261 92.1036 17.5184C92.5855 17.6228 93.067 17.7307 93.548 17.8421C94.0593 17.954 94.5605 18.0899 95.0517 18.2498C95.5135 18.397 95.9511 18.6116 96.3504 18.8868C96.7243 19.1472 97.0366 19.4869 97.2651 19.8818C97.4974 20.2818 97.6136 20.7773 97.6136 21.3684C97.6136 22.1204 97.4572 22.7439 97.1445 23.2389C96.8355 23.7302 96.4148 24.141 95.9168 24.4375C95.3895 24.7495 94.8109 24.9647 94.2082 25.0731C93.5854 25.1917 92.9529 25.2519 92.319 25.2528C91.6552 25.2557 90.9931 25.1832 90.3455 25.0367C89.7518 24.9076 89.1876 24.6678 88.6822 24.3298C88.198 23.9986 87.8015 23.5541 87.527 23.0348C87.2384 22.4991 87.0781 21.8477 87.046 21.0803H89.0914C89.0947 21.4811 89.2031 21.874 89.4058 22.2194V22.2229ZM105.193 12.5963V14.3948H102.714V22.088C102.709 22.2816 102.729 22.4751 102.774 22.6634C102.808 22.799 102.889 22.918 103.003 22.9991C103.144 23.0889 103.305 23.1425 103.472 23.155C103.732 23.1817 103.993 23.1936 104.254 23.1907H105.193V24.9892H103.628C103.173 24.9952 102.718 24.9589 102.269 24.8808C101.936 24.8287 101.621 24.6927 101.354 24.4857C101.106 24.2704 100.926 23.987 100.837 23.6704C100.724 23.3189 100.668 22.8553 100.668 22.2796V14.3913H98.5505V12.5928H100.668V8.8763H102.714V12.5928L105.193 12.5963ZM118.477 24.9409C118.123 25.1484 117.634 25.2523 117.009 25.2528C116.479 25.2528 116.058 25.105 115.746 24.8095C115.433 24.5139 115.277 24.0303 115.276 23.3585C114.755 24.0003 114.08 24.4995 113.315 24.8095C112.031 25.297 110.63 25.3847 109.296 25.0612C108.824 24.9487 108.378 24.7449 107.984 24.4612C107.609 24.1824 107.308 23.8162 107.106 23.3942C106.889 22.955 106.781 22.4236 106.781 21.7999C106.781 21.0964 106.901 20.5209 107.142 20.0734C107.37 19.6404 107.695 19.2669 108.093 18.9826C108.502 18.6949 108.958 18.4799 109.44 18.347C109.946 18.2034 110.463 18.0836 110.993 17.9876C111.554 17.8757 112.088 17.7918 112.596 17.7358C113.047 17.69 113.493 17.6098 113.932 17.496C114.317 17.3925 114.621 17.2408 114.846 17.0408C115.071 16.8408 115.183 16.5513 115.183 16.1653C115.183 15.7178 115.099 15.3581 114.931 15.0864C114.772 14.8249 114.548 14.6098 114.281 14.4626C114.003 14.3151 113.702 14.2178 113.39 14.1752C113.067 14.1282 112.741 14.1048 112.414 14.1053C111.548 14.1053 110.826 14.2685 110.248 14.5948C109.67 14.9211 109.357 15.5404 109.31 16.4527H107.264C107.296 15.6854 107.456 15.0381 107.745 14.5109C108.022 13.9968 108.417 13.5568 108.899 13.2277C109.4 12.892 109.959 12.6523 110.547 12.5208C111.199 12.373 111.865 12.3005 112.533 12.3047C113.092 12.3048 113.652 12.345 114.206 12.425C114.732 12.4959 115.242 12.6617 115.71 12.9145C116.156 13.1593 116.53 13.5186 116.793 13.9557C117.065 14.4018 117.202 14.9845 117.202 15.7038V22.067C117.202 22.5453 117.23 22.8961 117.286 23.1194C117.342 23.3427 117.531 23.4543 117.852 23.4543C118.064 23.4495 118.275 23.4173 118.479 23.3585L118.477 24.9409ZM115.156 18.5868C114.899 18.7784 114.562 18.9169 114.145 19.0064C113.728 19.0959 113.29 19.1651 112.833 19.221C112.376 19.277 111.915 19.3406 111.449 19.4119C111.019 19.4736 110.599 19.5896 110.198 19.7574C109.845 19.9045 109.535 20.1385 109.296 20.4377C109.063 20.7324 108.947 21.134 108.947 21.6425C108.938 21.9382 109.009 22.231 109.152 22.4893C109.283 22.7143 109.464 22.9058 109.681 23.0487C109.913 23.1983 110.17 23.3036 110.44 23.3592C110.74 23.424 111.047 23.4558 111.354 23.4543C112.028 23.4543 112.606 23.3629 113.087 23.1802C113.52 23.0257 113.919 22.7909 114.266 22.4879C114.551 22.2355 114.781 21.9258 114.94 21.5789C115.075 21.2912 115.149 20.9782 115.157 20.6601L115.156 18.5868ZM129.715 28.4896C128.786 29.4965 127.326 30 125.335 30C124.741 29.9983 124.148 29.9341 123.567 29.8084C122.991 29.6906 122.438 29.4799 121.93 29.1847C121.447 28.9034 121.032 28.5188 120.715 28.0582C120.393 27.592 120.217 27.0245 120.185 26.3555H122.231C122.237 26.6981 122.36 27.0283 122.579 27.2911C122.8 27.5497 123.071 27.7615 123.374 27.9141C123.697 28.0781 124.041 28.1958 124.397 28.2638C124.745 28.3339 125.1 28.3702 125.456 28.3721C126.129 28.3721 126.699 28.2556 127.164 28.0225C127.62 27.7982 128.016 27.4687 128.319 27.061C128.639 26.6205 128.864 26.1184 128.981 25.5863C129.122 24.965 129.191 24.3293 129.186 23.6921V22.8788H129.137C128.784 23.6461 128.25 24.2097 127.534 24.5696C126.829 24.9269 126.049 25.1116 125.259 25.1087C124.33 25.1087 123.52 24.9409 122.829 24.6053C122.16 24.2857 121.57 23.8234 121.098 23.2508C120.622 22.6631 120.267 21.9868 120.052 21.2608C119.817 20.4793 119.699 19.6668 119.704 18.8504C119.707 18.0863 119.804 17.3254 119.992 16.5849C120.178 15.8264 120.506 15.1102 120.959 14.4745C121.427 13.8262 122.036 13.2932 122.74 12.9159C123.477 12.508 124.384 12.304 125.459 12.304C126.212 12.2962 126.955 12.4734 127.624 12.8201C128.283 13.1653 128.821 13.7049 129.164 14.3661H129.189V12.5928H131.114V23.934C131.112 25.9642 130.646 27.4827 129.715 28.4896ZM127.104 22.9152C127.568 22.6448 127.96 22.2663 128.247 21.8118C128.544 21.3358 128.76 20.8132 128.885 20.2657C129.02 19.7002 129.088 19.1208 129.089 18.5393C129.089 17.9974 129.025 17.4574 128.897 16.931C128.777 16.4233 128.569 15.9405 128.283 15.5045C128.004 15.0828 127.628 14.7336 127.188 14.4857C126.739 14.2298 126.194 14.1018 125.552 14.1018C124.894 14.1018 124.332 14.2258 123.867 14.4738C123.413 14.7109 123.022 15.0518 122.724 15.4688C122.419 15.9028 122.198 16.3909 122.074 16.9072C121.936 17.4642 121.868 18.0361 121.87 18.6099C121.87 19.1735 121.926 19.7358 122.038 20.2881C122.141 20.8252 122.337 21.3403 122.616 21.8104C122.883 22.2605 123.254 22.6391 123.699 22.9138C124.148 23.1935 124.709 23.3333 125.383 23.3333C126.057 23.3333 126.631 23.1939 127.104 22.9152ZM142.998 24.1976C142.068 24.9011 140.897 25.2528 139.484 25.2528C138.489 25.2528 137.627 25.0929 136.897 24.7731C136.19 24.4704 135.561 24.0115 135.056 23.4305C134.545 22.8282 134.166 22.1259 133.94 21.3684C133.684 20.52 133.544 19.6408 133.522 18.7546C133.512 17.8733 133.659 16.9972 133.955 16.1674C134.223 15.4145 134.635 14.7209 135.166 14.1249C135.683 13.5524 136.314 13.0951 137.019 12.7823C137.758 12.4592 138.556 12.2971 139.362 12.3068C140.469 12.3068 141.388 12.5348 142.118 12.9907C142.829 13.4274 143.43 14.0222 143.875 14.729C144.316 15.4341 144.626 16.2139 144.79 17.0303C144.954 17.8115 145.022 18.6099 144.994 19.4077H135.68C135.662 19.9303 135.727 20.4525 135.873 20.9545C136.011 21.4307 136.248 21.872 136.57 22.2488C136.908 22.6365 137.329 22.9428 137.801 23.1452C138.298 23.3699 138.884 23.4818 139.558 23.4809C140.424 23.4809 141.134 23.2811 141.687 22.8816C142.24 22.4821 142.605 21.8747 142.783 21.0594H144.804C144.531 22.4499 143.929 23.496 142.999 24.1976H142.998ZM142.504 16.2373C142.33 15.8195 142.077 15.4395 141.758 15.1185C141.242 14.6268 140.594 14.2951 139.894 14.1633C139.194 14.0314 138.471 14.105 137.811 14.3752C137.399 14.5503 137.027 14.8074 136.716 15.1311C136.409 15.4547 136.164 15.8326 135.995 16.2457C135.816 16.6767 135.71 17.1344 135.682 17.6002H142.829C142.799 17.1308 142.69 16.67 142.506 16.2373H142.504ZM21.1247 11.6076C21.4616 11.3996 21.7756 11.1566 22.0616 10.8825C22.1174 10.8286 22.1697 10.7748 22.2227 10.7209C22.4228 10.5167 22.6073 10.2977 22.7748 10.0657C22.9452 9.82996 23.0916 9.57767 23.2119 9.31264C23.3794 8.95122 23.4823 8.56304 23.5158 8.16586C23.6197 6.81001 22.8187 5.46186 21.0327 4.37452L13.8412 0L5.45772 8.05678L0 13.3012L7.57068 17.9092C8.78307 18.6538 10.1757 19.0509 11.5972 19.0574C13.3344 19.0574 14.9991 18.4421 16.2275 17.261C17.5631 15.9772 18.0065 14.3158 17.1825 12.9348C17.0482 12.7108 16.8892 12.5027 16.7085 12.3145C17.1498 12.4132 17.6004 12.4636 18.0525 12.4649H18.0644C18.8036 12.4662 19.5365 12.3288 20.2254 12.06C20.538 11.9364 20.839 11.785 21.1247 11.6076ZM14.1124 15.7891C12.7656 17.0834 10.5989 17.2743 8.83524 16.2017L3.59781 13.0131L8.29916 8.49241L13.6265 11.7362C15.5464 12.9061 15.4404 14.5165 14.1124 15.7919V15.7891ZM14.7356 10.0406L9.81051 7.04426L14.2999 2.72708L19.1358 5.67163C20.9441 6.77155 21.1791 8.26236 19.8713 9.51752C19.193 10.1611 18.3215 10.5617 17.3926 10.6568C16.4638 10.7519 15.5296 10.5362 14.7356 10.0434V10.0406ZM16.8172 23.3263C15.453 24.6374 13.5986 25.3598 11.5972 25.3598C10.0196 25.3534 8.4739 24.9135 7.12801 24.0878L0 19.7546V21.4796L7.57068 26.0884C8.78307 26.8329 10.1757 27.23 11.5972 27.2366C13.3344 27.2366 14.9991 26.6205 16.2275 25.4402C17.1253 24.5773 17.6217 23.5431 17.5994 22.539V22.4138C17.3694 22.7449 17.1074 23.0524 16.8172 23.3319V23.3263ZM16.8172 20.5993C15.453 21.9111 13.5986 22.6334 11.5972 22.6334C10.0196 22.627 8.4739 22.1871 7.12801 21.3614L0 17.0282V18.7539L7.57068 23.3627C8.78312 24.107 10.1757 24.5039 11.5972 24.5102C13.3344 24.5102 14.9991 23.8948 16.2275 22.7145C17.1253 21.8509 17.6217 20.8174 17.5994 19.8126V19.6874C17.3697 20.0188 17.1077 20.3263 16.8172 20.6056V20.5993ZM16.8172 17.8722C15.453 19.184 13.5986 19.9063 11.5972 19.9063C10.0196 19.8999 8.4739 19.46 7.12801 18.6344L0 14.3025V16.0283L7.57068 20.637C8.78312 21.3813 10.1757 21.7782 11.5972 21.7845C13.3344 21.7845 14.9991 21.1691 16.2275 19.9881C17.1253 19.1252 17.6217 18.0917 17.5994 17.0869V16.9597C17.3697 17.2916 17.1077 17.5999 16.8172 17.8799V17.8722ZM22.6514 19.6721C21.5136 20.7591 20.0248 21.4008 18.4554 21.4803V23.355C19.8046 23.2798 21.0829 22.7253 22.0616 21.7908C23.0376 20.8552 23.536 19.8252 23.5256 18.8092V18.6553C23.2695 19.0256 22.9766 19.3689 22.6514 19.6797V19.6721ZM16.8172 26.0499C15.453 27.361 13.5986 28.0841 11.5972 28.0841C10.0195 28.0777 8.47371 27.6375 7.12801 26.8114L0 22.4802V24.2053L7.57068 28.8141C8.78307 29.5586 10.1757 29.9557 11.5972 29.9622C13.3344 29.9622 14.9991 29.3462 16.2275 28.1659C17.1253 27.303 17.6217 26.2688 17.5994 25.2647V25.1395C17.3695 25.4707 17.1075 25.7782 16.8172 26.0576V26.0499ZM22.795 11.351C22.7476 11.3992 22.7009 11.4475 22.6514 11.4943C22.1875 11.9297 21.666 12.2989 21.1017 12.5914C20.525 12.8833 19.9087 13.0885 19.2725 13.2005C18.9465 13.2611 18.6166 13.2978 18.2853 13.3103C18.3202 13.4228 18.3481 13.5375 18.3725 13.6529C18.4306 13.9287 18.4571 14.2102 18.4513 14.492V15.1738H18.4547C19.0613 15.1373 19.6586 15.0068 20.2254 14.7871C20.9089 14.5189 21.5336 14.1194 22.0644 13.6109C22.1209 13.5571 22.1697 13.5019 22.2227 13.4473C22.4228 13.2428 22.6073 13.0236 22.7748 12.7914C22.9455 12.5554 23.0924 12.3029 23.2133 12.0376C23.3803 11.6752 23.4823 11.286 23.5144 10.8881C23.5207 10.802 23.5283 10.7153 23.5277 10.6293V10.4895C23.4775 10.5594 23.4245 10.6335 23.3701 10.7055C23.1924 10.9353 23.0003 11.1534 22.795 11.3586V11.351ZM22.795 16.7995C22.7476 16.8485 22.7044 16.8981 22.6556 16.9464C21.5179 18.0336 20.029 18.675 18.4596 18.7539V20.6279C19.8087 20.5524 21.0869 19.9979 22.0658 19.0637C22.5453 18.6178 22.9352 18.084 23.2146 17.4911C23.3816 17.1286 23.4836 16.7395 23.5158 16.3415C23.5221 16.2548 23.5297 16.1681 23.529 16.0821V15.9283C23.4775 16.0038 23.4266 16.0793 23.3708 16.1534C23.1923 16.3838 22.999 16.6022 22.7922 16.8072L22.795 16.7995ZM22.795 14.0724C22.7476 14.1214 22.7044 14.171 22.6556 14.2193C22.4241 14.439 22.1766 14.6412 21.9152 14.8241C21.6571 15.0068 21.3862 15.1704 21.1045 15.3136C20.2815 15.7319 19.3809 15.9743 18.4596 16.0255H18.4561V17.8904C19.8052 17.8149 21.0835 17.2604 22.0623 16.3261C22.1188 16.2723 22.1676 16.217 22.2206 16.1625C22.4207 15.958 22.6052 15.7388 22.7727 15.5066C22.9433 15.2707 23.0901 15.0184 23.2112 14.7535C23.3782 14.3909 23.4802 14.0015 23.5123 13.6032C23.5186 13.5172 23.5263 13.4305 23.5256 13.3445V13.1907C23.474 13.2662 23.4231 13.3417 23.3673 13.4158C23.19 13.6499 22.9979 13.8722 22.7922 14.0815L22.795 14.0724Z" fill="#66d2bf"/>
</svg>
